<svg viewBox="0 0 609 126" fill="none" xmlns="http://www.w3.org/2000/svg">
<path d="M154.093 75.8553V75.4192H162.94V75.8553C162.94 82.6015 166.793 87.767 178.533 87.767H179.409C188.432 87.767 193.337 83.9138 193.337 78.132V77.6959C193.337 72.2663 190.184 69.9015 184.667 68.585L170.65 65.1679C162.151 63.0673 156.374 58.4217 156.374 49.2269V48.3506C156.374 38.1915 164.432 31.4454 178.273 31.4454H179.149C192.725 31.4454 200.524 38.8037 200.524 48.8747V49.3108H191.853V48.8747C191.853 43.705 187.736 38.7156 179.153 38.7156H178.277C169.518 38.7156 164.877 42.7449 164.877 48.4387V48.8747C164.877 53.5162 167.594 56.2331 173.635 57.7215L187.74 61.1386C196.323 63.2392 201.844 67.6207 201.844 76.9915V77.8678C201.844 88.3791 193.698 95.0373 179.333 95.0373H178.457C160.675 95.0373 154.105 87.1548 154.105 75.8553H154.093Z" fill="white"/>
<path d="M208.658 32.1455H216.892V41.2564H208.658V32.1455ZM208.658 49.663H216.892V94.337H208.658V49.663Z" fill="white"/>
<path d="M224.766 49.6672H232.649V56.8494C236.59 50.9795 240.007 49.1431 246.313 49.1431H247.189C256.388 49.1431 261.642 53.9606 261.642 65.2601V94.3413H253.407V66.3964C253.407 58.6901 250.518 55.6209 244.909 55.6209H244.032C237.026 55.6209 232.997 60.9625 232.997 68.6731V94.3371H224.762V49.663L224.766 49.6672Z" fill="white"/>
<path d="M268.292 97.6704H276.526V98.1064C276.526 102.224 280.379 104.064 287.65 104.064H288.002C294.66 104.064 298.865 102.048 298.865 96.0058V85.8467C295.448 91.0164 292.295 92.9409 285.989 92.9409H285.113C274.078 92.9409 267.42 84.4421 267.42 71.4823V70.606C267.42 57.6419 274.078 49.1473 285.025 49.1473H285.901C292.471 49.1473 295.712 50.9879 299.13 56.7698V49.6756H307.012V96.0142C307.012 106.173 299.742 110.203 287.654 110.203H287.302C272.761 110.203 268.292 104.773 268.292 98.1148V97.6704ZM287.302 86.5427H288.178C295.624 86.5427 299.389 81.6372 299.389 71.4781V70.6018C299.389 60.4427 295.624 55.5371 288.178 55.5371H287.302C280.119 55.5371 276.09 60.5307 276.09 70.6018V71.4781C276.09 81.5491 280.119 86.5427 287.302 86.5427Z" fill="white"/>
<path d="M314.886 32.1455H323.121V94.337H314.886V32.1455Z" fill="white"/>
<path d="M329.942 72.4382V71.5619C329.942 57.1974 337.036 49.1389 349.824 49.1389H350.701C362.789 49.1389 369.359 56.145 369.359 70.7736C369.359 72.174 369.271 73.2264 369.182 73.9266H338.349C338.613 83.8257 342.642 88.7313 349.824 88.7313H350.701C358.495 88.7313 360.16 83.7377 360.16 81.1969V80.7608H368.482V81.1969C368.482 86.7146 364.717 94.8611 350.965 94.8611H350.089C336.86 94.8611 329.942 86.8026 329.942 72.4382ZM360.952 67.7968V67.6206C360.952 58.8619 357.099 55.1807 350.617 55.1807H349.741C343.523 55.1807 339.053 59.2099 338.441 67.7926H360.952V67.7968Z" fill="white"/>
<path d="M375.136 75.8553V75.4192H383.983V75.8553C383.983 82.6015 387.836 87.767 399.576 87.767H400.452C409.475 87.767 414.381 83.9138 414.381 78.132V77.6959C414.381 72.2663 411.228 69.9015 405.71 68.585L391.693 65.1679C383.195 63.0673 377.417 58.4217 377.417 49.2269V48.3506C377.417 38.1915 385.476 31.4454 399.316 31.4454H400.192C413.768 31.4454 421.567 38.8037 421.567 48.8747V49.3108H412.896V48.8747C412.896 43.705 408.779 38.7156 400.196 38.7156H399.32C390.561 38.7156 385.916 42.7449 385.916 48.4387V48.8747C385.916 53.5162 388.633 56.2331 394.675 57.7215L408.779 61.1386C417.362 63.2392 422.884 67.6207 422.884 76.9915V77.8678C422.884 88.3791 414.737 95.0373 400.372 95.0373H399.496C381.715 95.0373 375.145 87.1548 375.145 75.8553H375.136Z" fill="white"/>
<path d="M435.135 85.3142V56.4091H427.077V49.663H433.47C434.783 49.663 435.487 48.8747 435.487 47.5582V38.0112H443.37V49.663H454.493V56.4091H443.37V83.8257C443.37 86.7146 444.51 87.5909 447.135 87.5909H454.493V94.337H444.246C437.764 94.337 435.135 91.3602 435.135 85.3142Z" fill="white"/>
<path d="M458.69 72.4382V71.5619C458.69 57.1974 465.52 49.1389 478.836 49.1389H479.713C493.029 49.1389 499.859 57.1974 499.859 71.5619V72.4382C499.859 86.8026 493.025 94.8611 479.713 94.8611H478.836C465.52 94.8611 458.69 86.8026 458.69 72.4382ZM478.836 88.4672H479.713C487.071 88.4672 491.188 83.6497 491.188 72.4382V71.5619C491.188 60.3504 487.071 55.5329 479.713 55.5329H478.836C471.478 55.5329 467.361 60.3504 467.361 71.5619V72.4382C467.361 83.6497 471.478 88.4672 478.836 88.4672Z" fill="white"/>
<path d="M506.685 49.6672H514.567V57.9018C518.161 51.6839 519.825 49.6672 525.255 49.6672H530.86V57.2855H523.678C518.425 57.2855 514.919 61.6669 514.919 68.3209V94.3371H506.685V49.663V49.6672Z" fill="white"/>
<path d="M532.86 72.4382V71.5619C532.86 57.1974 539.954 49.1389 552.742 49.1389H553.619C565.706 49.1389 572.277 56.145 572.277 70.7736C572.277 72.174 572.189 73.2264 572.1 73.9266H541.267C541.531 83.8257 545.56 88.7313 552.742 88.7313H553.619C561.413 88.7313 563.078 83.7377 563.078 81.1969V80.7608H571.4V81.1969C571.4 86.7146 567.635 94.8611 553.883 94.8611H553.006C539.778 94.8611 532.86 86.8026 532.86 72.4382ZM563.87 67.7968V67.6206C563.87 58.8619 560.017 55.1807 553.535 55.1807H552.659C546.441 55.1807 541.971 59.2099 541.359 67.7926H563.87V67.7968Z" fill="white"/>
<path d="M105.917 57.6549C105.657 58.5606 105.368 59.4578 105.053 60.3383C104.722 61.2649 104.366 62.1748 103.976 63.072L90.9321 62.7995C90.9321 63.0636 90.9321 63.3236 90.9237 63.5877L126.378 64.3298C126.424 62.2377 126.369 60.1497 126.206 58.0784L105.913 57.6549H105.917Z" fill="white"/>
<path d="M78.5466 1.59325L78.1902 2.47793C80.1566 3.21586 82.0601 4.09215 83.8924 5.08584L71.2763 36.3598C72.0436 36.5946 72.8109 36.8671 73.5698 37.1732C73.6075 37.19 73.6452 37.2025 73.6788 37.2193L86.9405 4.33952C86.9028 4.32275 86.8651 4.31017 86.8315 4.2934C84.0978 3.1907 81.3306 2.29345 78.5466 1.59325Z" fill="white"/>
<path d="M91.2297 10.0585C92.8104 11.3708 94.303 12.788 95.695 14.3016L77.6954 39.2486C78.3243 39.6343 78.9364 40.041 79.5234 40.4687L100.274 11.7146C98.0471 10.1046 95.695 8.62454 93.2254 7.29542L91.2297 10.0627V10.0585Z" fill="white"/>
<path d="M100.756 20.9346C101.829 22.6452 102.789 24.4313 103.632 26.2846L83.1795 43.6553C83.6072 44.0997 84.0181 44.5567 84.4164 45.0305L111.443 22.075C109.77 20.096 107.971 18.2135 106.051 16.4399L100.76 20.9346H100.756Z" fill="white"/>
<path d="M116.194 28.4815L106.185 33.4709C106.688 35.387 107.07 37.3535 107.322 39.3618L87.3724 49.3071C87.6155 49.7431 87.8503 50.1834 88.0684 50.6278L119.795 34.8126C118.718 32.6366 117.514 30.5234 116.189 28.4815H116.194Z" fill="white"/>
<path d="M107.67 46.1038C107.628 48.0912 107.456 50.0534 107.162 51.9737L90.0138 55.8227C90.1102 56.1917 90.2024 56.5606 90.2821 56.9338L124.877 49.1688C124.382 46.9634 123.774 44.7873 123.049 42.649L107.67 46.0997V46.1038Z" fill="white"/>
<path d="M125.443 73.8056L101.8 67.4493C100.911 69.0132 99.9339 70.5268 98.8731 71.9691L90.1018 69.6128C90.0515 69.8098 90.0012 70.0027 89.9467 70.1998L124.185 79.4029C124.692 77.5413 125.107 75.6755 125.439 73.8014L125.443 73.8056Z" fill="white"/>
<path d="M96.2023 75.2772C95.1205 76.4973 93.9717 77.6587 92.7642 78.753L87.6658 75.9397C87.5861 76.0906 87.5023 76.2416 87.4184 76.3925L118.462 93.52C119.296 92.0064 120.076 90.4509 120.797 88.8493L96.1981 75.2772H96.2023Z" fill="white"/>
<path d="M89.8041 81.2267C88.6385 82.1198 87.4268 82.9542 86.1774 83.734L83.7665 81.5077C83.6785 81.6083 83.5862 81.7047 83.494 81.8054L109.54 105.868C110.605 104.723 111.628 103.532 112.609 102.3L89.8041 81.2309V81.2267Z" fill="white"/>
<path d="M101.33 113.285L83.016 85.5285C82.2907 85.9017 81.5569 86.2539 80.8106 86.5893C80.8106 86.5893 79.4647 87.1679 79.1587 87.2937L97.9046 115.7C99.0744 114.933 100.215 114.127 101.334 113.285H101.33Z" fill="white"/>
<path d="M76.0476 88.409C75.7373 88.5054 73.7709 89.0756 73.1881 89.2182C73.1881 89.2182 72.6389 89.3524 72.4879 89.3859L84.2487 122.463C85.4059 122.052 86.5505 121.612 87.6826 121.134L76.0476 88.4048V88.409Z" fill="white"/>
<path d="M68.9787 90.0149C67.9473 90.2371 66.9033 90.3964 65.8467 90.5012L69.3854 125.783C70.4378 125.679 71.486 125.549 72.5258 125.394L68.9787 90.0191V90.0149Z" fill="white"/>
<path d="M61.8047 90.5934C60.9242 90.5473 60.0438 90.4634 59.1633 90.3335L54.1529 125.44C55.0292 125.565 55.9097 125.674 56.786 125.767L61.8047 90.5976V90.5934Z" fill="white"/>
<path d="M20.4765 68.1285C20.7365 67.2229 21.0258 66.3256 21.3402 65.4452C21.6715 64.5185 22.0279 63.6087 22.4178 62.7115L35.4615 62.984C35.4615 62.7198 35.4615 62.4599 35.4699 62.1958L0.0157544 61.4536C-0.0303661 63.5458 0.02414 65.6338 0.187658 67.7051L20.4807 68.1285H20.4765Z" fill="white"/>
<path d="M47.8511 124.19L48.2075 123.305C46.2411 122.568 44.3376 121.691 42.5053 120.698L55.1214 89.4236C54.3541 89.1888 53.5869 88.9163 52.828 88.6102C52.7902 88.5934 52.7525 88.5809 52.7189 88.5641L39.4572 121.444C39.4949 121.461 39.5327 121.473 39.5662 121.49C42.2999 122.593 45.0671 123.49 47.8511 124.19Z" fill="white"/>
<path d="M35.1639 115.725C33.5832 114.413 32.0905 112.995 30.6985 111.482L48.6982 86.5348C48.0692 86.1491 47.4571 85.7424 46.8701 85.3147L26.12 114.069C28.3464 115.679 30.6985 117.159 33.1681 118.488L35.1639 115.721V115.725Z" fill="white"/>
<path d="M25.6378 104.849C24.5645 103.138 23.6043 101.352 22.7616 99.4989L43.214 82.1282C42.7863 81.6838 42.3754 81.2268 41.9771 80.753L14.9504 103.708C16.6234 105.687 18.4221 107.57 20.3424 109.344L25.6337 104.849H25.6378Z" fill="white"/>
<path d="M10.2042 97.3019L20.2124 92.3125C19.7092 90.3964 19.3277 88.43 19.0761 86.4216L39.0254 76.4763C38.7822 76.0403 38.5474 75.6001 38.3294 75.1556L6.59841 90.9708C7.67595 93.1468 8.87928 95.26 10.2042 97.3019Z" fill="white"/>
<path d="M18.7239 79.6797C18.7658 77.6923 18.9377 75.73 19.2312 73.8098L36.3797 69.9608C36.2833 69.5918 36.191 69.2229 36.1113 68.8497L1.51671 76.6105C2.01146 78.8159 2.61941 80.992 3.34476 83.1303L18.7281 79.6797H18.7239Z" fill="white"/>
<path d="M0.950746 51.9779L24.5938 58.3342C25.4827 56.7703 26.4596 55.2567 27.5204 53.8144L36.2917 56.1707C36.342 55.9736 36.3923 55.7808 36.4468 55.5837L2.20439 46.3764C1.69706 48.2379 1.28198 50.1037 0.950746 51.9779Z" fill="white"/>
<path d="M30.1912 50.5062C31.273 49.2861 32.4218 48.1247 33.6293 47.0304L38.7277 49.8438C38.8074 49.6929 38.8913 49.5419 38.9751 49.391L7.93176 32.2593C7.0974 33.7729 6.31754 35.3284 5.59638 36.93L30.1954 50.5021L30.1912 50.5062Z" fill="white"/>
<path d="M36.5936 44.5567C37.7592 43.6636 38.9709 42.8292 40.2203 42.0494L42.6312 44.2757C42.7192 44.1751 42.8115 44.0787 42.9037 43.9781L16.8582 19.9157C15.7932 21.0603 14.7702 22.2511 13.789 23.4837L36.5936 44.5525V44.5567Z" fill="white"/>
<path d="M25.0676 12.4987L43.3817 40.2549C44.107 39.8817 44.8408 39.5295 45.5871 39.1941C45.5871 39.1941 46.933 38.6155 47.2391 38.4897L28.4973 10.0836C27.3275 10.8509 26.1871 11.6559 25.0676 12.4987Z" fill="white"/>
<path d="M50.3459 37.3745C50.6562 37.278 52.6226 36.7078 53.2054 36.5653C53.2054 36.5653 53.7547 36.4311 53.9056 36.3976L42.1448 3.3207C40.9876 3.73159 39.843 4.17184 38.711 4.64981L50.3459 37.3787V37.3745Z" fill="white"/>
<path d="M57.415 35.7686C58.4464 35.5464 59.4904 35.3871 60.547 35.2823L57.0125 0C55.9601 0.10482 54.9119 0.234796 53.8721 0.389929L57.4192 35.7644L57.415 35.7686Z" fill="white"/>
<path d="M64.593 35.19C65.4735 35.2361 66.354 35.32 67.2345 35.4499L72.2407 0.343773C71.3644 0.21799 70.4839 0.108978 69.6076 0.0167363L64.5888 35.1858L64.593 35.19Z" fill="white"/>
<path d="M588.758 94.3646V82.805H584.786V81.25H594.678V82.805H590.706V94.3646H588.758Z" fill="white"/>
<path d="M596.213 94.3646V81.25H598.91L602.545 91.7791L606.03 81.25H608.821V94.3646H606.854V83.9853L603.37 94.3646H601.627L598.18 83.9853V94.3646H596.213Z" fill="white"/>
</svg>
